<?xml version="1.0" encoding="UTF-8"?>
<svg xmlns="http://www.w3.org/2000/svg" width="865.76" height="682.89" viewBox="0 0 865.76 682.89">
  <path d="M346.07,271.62l3.48,6.27,24.35-11.62.37,33.15L338.17,316s-10.73,3.86-14.64-3.95c-.69-1.39-12.87-29.19-12.87-29.19Z" fill="#ef9a6d"></path>
  <rect x="502.26" y="91.83" width="226.55" height="428.22" rx="15.57" fill="#955f79"></rect>
  <path d="M295.46,575.2,290.77,588l-29.42-.62,2.82-13.15A297.05,297.05,0,0,0,295.46,575.2Z" fill="#ef9a6d"></path>
  <rect x="487.2" y="92.49" width="226.55" height="428.22" rx="15.57" fill="#955f79"></rect>
  <rect x="487.2" y="92.49" width="226.55" height="428.22" rx="15.57" opacity="0.2"></rect>
  <rect x="495.72" y="103.62" width="208.87" height="407.92" rx="13.32" fill="#fdebdf"></rect>
  <rect x="718.82" y="177.94" width="7.01" height="55.09" rx="3.14" opacity="0.2"></rect>
  <rect x="718.82" y="240.99" width="7.01" height="49.28" rx="3.14" opacity="0.2"></rect>
  <polygon points="780.16 102.71 739.4 145.46 839.14 80.2 839.14 80.2 780.16 102.71" fill="#48c4e6"></polygon>
  <path d="M781.3,67.94l5.41,24.23L838.6,80.32a.12.12,0,0,0,0-.23Z" fill="#48c4e6"></path>
  <polygon points="784.16 139.4 783.28 116.77 839.13 80.21 839.13 80.22 784.16 139.4" fill="#48c4e6"></polygon>
  <polygon points="786.71 92.17 790.12 98.7 839.13 80.21 786.71 92.17" fill="#48c4e6"></polygon>
  <g opacity="0.2">
    <polygon points="784.16 139.4 783.28 116.77 839.13 80.21 839.13 80.22 784.16 139.4"></polygon>
    <polygon points="786.71 92.17 790.12 98.7 839.13 80.21 786.71 92.17"></polygon>
  </g>
  <path d="M493.28,132.84l-.22-1c1.87-.44,2.93-.67,2.93-.67l.2,1S495.14,132.4,493.28,132.84Z" fill="#48c4e6"></path>
  <path d="M437.68,198.11c-2.14,0-4.15-.15-6-.32l.1-1c1.82.18,3.81.28,5.92.32Zm6-.07,0-1c1.9-.07,3.9-.18,5.94-.34l.08,1C447.6,197.86,445.59,198,443.68,198Zm11.93-.9-.1-1c1.91-.21,3.9-.46,5.91-.73l.13,1C459.53,196.69,457.53,196.93,455.61,197.14Zm-29.88-.27a23.35,23.35,0,0,1-5.75-2l.47-.89a22.4,22.4,0,0,0,5.5,1.9Zm41.74-1.32-.15-1c1.89-.3,3.84-.62,5.88-1l.17,1C471.33,194.92,469.37,195.25,467.47,195.55Zm11.78-2.07-.19-1q2.83-.54,5.85-1.16l.2,1Q482.1,192.94,479.25,193.48ZM491,191.07l-.22-1c1.9-.42,3.84-.85,5.82-1.31l.23,1C494.8,190.22,492.85,190.66,491,191.07Zm-75.19-.63a24,24,0,0,1-1.94-5.76l1-.19a22.56,22.56,0,0,0,1.85,5.52Zm86.84-2.05-.24-1c1.89-.46,3.82-.93,5.8-1.43l.24,1C506.43,187.46,504.5,187.93,502.61,188.39Zm11.59-2.91-.25-1c1.88-.48,3.81-1,5.77-1.52l.26,1C518,184.49,516.09,185,514.2,185.48Zm11.54-3.09-.26-1,5.75-1.6.27,1Zm11.5-3.24-.28-1,5.73-1.67.29,1Zm-122.63-.45-1-.12a20.7,20.7,0,0,1,1.65-5.85l.91.4A19.9,19.9,0,0,0,414.61,178.7Zm134.09-2.93-.29-1,5.72-1.73.29.95Zm11.43-3.5-.3-1,5.69-1.78.31.95Zm11.38-3.67-.33-.95,5.65-2,.32,1Zm-152.35-.49-.8-.6a38,38,0,0,1,4-4.53l.7.71A38.74,38.74,0,0,0,419.16,168.11Zm163.64-3.42-.33-.94,5.65-1.95.32.94Zm11.29-3.9-.33-.95,5.65-2,.32,1Zm-166.58-1-.61-.79c1.5-1.17,3.15-2.35,4.89-3.49l.55.83C430.62,157.5,429,158.66,427.51,159.81Zm177.87-2.93-.33-.94L610.7,154l.32.94Zm-168-3.62-.5-.87c1.67-1,3.45-1.91,5.29-2.84l.45.89C440.84,151.36,439.07,152.31,437.42,153.26ZM616.67,153l-.33-.95,5.64-1.95.33.95ZM628,149.07l-.32-.94,5.64-2,.33,1ZM448,147.86l-.41-.91c1.76-.81,3.61-1.61,5.5-2.4l.38.93C451.62,146.26,449.78,147.06,448,147.86Zm191.21-2.69-.32-.95,5.64-1.95.33.94Zm-180.19-1.9-.36-.94c1.82-.69,3.71-1.39,5.63-2.06l.33.94C462.74,141.88,460.86,142.58,459.05,143.27Zm191.48-2-.32-.94,5.64-2,.33.95Zm-180.23-2-.31-.95q3-1,5.72-1.79l.29.95C474.17,138.06,472.26,138.66,470.3,139.29Zm191.52-1.93-.32-1,5.64-1.95.33.94Zm-180.09-1.53-.27-1c2.11-.6,4.05-1.12,5.79-1.57l.25,1C485.77,134.72,483.83,135.24,481.73,135.83Zm191.38-2.38-.32-.94,5.64-2,.33.95Zm11.29-3.9-.33-1,5.65-1.95.32.94Zm11.29-3.91-.33-1,5.65-2,.32,1ZM707,121.73l-.33-.94,5.65-2,.32.94Zm11.29-3.9-.33-1,5.65-1.95.32.95Zm11.29-3.91-.33-.94,5.65-2,.32.94Zm11.29-3.9-.33-1,5.64-1.95.33.95Zm11.29-3.91-.33-.94,5.64-2,.33,1Z" fill="#48c4e6"></path>
  <rect x="763.22" y="100.73" width="3" height="1" transform="translate(8.8 254.97) rotate(-19.04)" fill="#48c4e6"></rect>
  <rect x="573.15" y="235.82" width="33.14" height="193.16" rx="14.87" fill="#955f79"></rect>
  <rect x="649.26" y="305.1" width="133.5" height="49.26" rx="6.41" fill="#ababab"></rect>
  <circle cx="758.88" cy="328.61" r="15.23" fill="#48c4e6"></circle>
  <line x1="751.73" y1="334.44" x2="766.02" y2="322.78" fill="none" stroke="#fff" stroke-linecap="round" stroke-linejoin="round"></line>
  <line x1="752.06" y1="322.4" x2="765.7" y2="334.81" fill="none" stroke="#fff" stroke-linecap="round" stroke-linejoin="round"></line>
  <rect x="507.21" y="111.9" width="22.15" height="6.69" rx="3" fill="#ababab"></rect>
  <line x1="646.9" y1="112.08" x2="646.9" y2="119.83" fill="none" stroke="#ababab" stroke-linecap="round" stroke-linejoin="round"></line>
  <line x1="643.52" y1="114.22" x2="643.52" y2="119.91" fill="none" stroke="#ababab" stroke-linecap="round" stroke-linejoin="round"></line>
  <line x1="639.81" y1="115.37" x2="639.81" y2="119.91" fill="none" stroke="#ababab" stroke-linecap="round" stroke-linejoin="round"></line>
  <line x1="636.35" y1="117.68" x2="636.35" y2="119.91" fill="none" stroke="#ababab" stroke-linecap="round" stroke-linejoin="round"></line>
  <circle cx="659.59" cy="118.26" r="1.32" fill="#ababab"></circle>
  <path d="M656.09,116.4s3.63-3,7,.38" fill="none" stroke="#ababab" stroke-linecap="round" stroke-linejoin="round"></path>
  <path d="M654,114.14s5.15-5,10.71.14" fill="none" stroke="#ababab" stroke-linecap="round" stroke-linejoin="round"></path>
  <path d="M685.6,111.92v7H671.72a.29.29,0,0,1-.3-.3v-6.35a.29.29,0,0,1,.3-.3Z" fill="none" stroke="#ababab" stroke-linecap="round" stroke-linejoin="round"></path>
  <rect x="685.57" y="113.65" width="1.61" height="3.49" fill="#ababab"></rect>
  <path d="M683.27,118.87H671.72a.29.29,0,0,1-.3-.3v-6.35a.29.29,0,0,1,.3-.3h7.5Z" fill="#ababab"></path>
  <path d="M314.87,186.67s15.61,6,21,25.82l15.31,57.34-45.33,15.31S302,265.62,301.36,259L280.05,363.19s-68.45-.9-116.49-29.12c0,0,25.82-85.26,46.54-119.48,0,0,16.81-32.73,36-35.13,0,0,32.43-5.7,39.93-8.1Z" fill="#48c4e6"></path>
  <path d="M326.26,278.21S311,254.82,309.17,229.9L301.36,259l4.51,26.12Z" opacity="0.2"></path>
  <polyline points="280.9 219.06 285.2 276.86 229.08 282.35 223.35 243.66" fill="#48c4e6"></polyline>
  <path d="M280.05,363.19l15.18-73.67s.48-40.84-14.09-67.59l4.06,54.93-56.12,5.49-3.82-25.07s-20.78,21.25-7.41,55.17a64,64,0,0,0,26,29.13Z" opacity="0.2"></path>
  <path d="M165.37,405.29a43.67,43.67,0,0,0,18.44,9,287.58,287.58,0,0,1,47.68,19.5c20.09,10.45,33,20.45,38.68,25.26a7.34,7.34,0,0,1,2.44,7.17l-23,105.27c16.88,5.76,56,3.3,56,3.3l28-105.36a149.49,149.49,0,0,0,3.95-22.05,13.39,13.39,0,0,0-1.38-7.17c-10.88-21.65-67.43-61.74-67.43-61.74l3.33-16c-72-4.17-106.78-27.61-106.78-27.61C144.14,375.08,153.6,395.34,165.37,405.29Z" fill="#ababab"></path>
  <path d="M62.17,539.15c5.49,9,15.15,18.1,22.08,24,4.74,4,8.2,6.59,8.2,6.59l98.9-79.36c18.38-16.21,38.47-53.48,40.14-56.57a287.58,287.58,0,0,0-47.68-19.5,43.67,43.67,0,0,1-18.44-9c-4.55,41.52-19.89,49.77-19.89,49.77l-35.36,29.32L59.36,521.24C56.42,526.31,58.22,532.7,62.17,539.15Z" fill="#ababab"></path>
  <path d="M62.17,539.15c5.49,9,15.15,18.1,22.08,24,4.74,4,8.2,6.59,8.2,6.59l98.9-79.36c18.38-16.21,38.47-53.48,40.14-56.57a287.58,287.58,0,0,0-47.68-19.5,43.67,43.67,0,0,1-18.44-9c-4.55,41.52-19.89,49.77-19.89,49.77l-35.36,29.32L59.36,521.24C56.42,526.31,58.22,532.7,62.17,539.15Z" opacity="0.2"></path>
  <path d="M268.74,378.51l3.33-16s-64.77-1.85-106.78-27.61C165.29,334.9,171.64,358.76,268.74,378.51Z" opacity="0.2"></path>
  <path d="M50.84,548.12l16.85,23.33,16.56-8.28c-6.93-5.92-16.59-15-22.08-24Z" fill="#ef9a6d"></path>
  <path d="M27,568.12l20.9,44a3.72,3.72,0,0,0,3.36,2.11l38-.14a2.76,2.76,0,0,0,2.76-2.7,41.92,41.92,0,0,0-.14-4.27c-.65-8-4-20.2-18.32-20.43,0,0-7.77.82-5.83-15.22L50.84,548.12l-20.2,13.6-2.32,1.57A3.83,3.83,0,0,0,27,568.12Z" fill="#48c4e6"></path>
  <path d="M27,568.12l20.9,44a3.72,3.72,0,0,0,3.36,2.11l38-.14a2.76,2.76,0,0,0,2.76-2.7,41.92,41.92,0,0,0-.14-4.27c-9.48-.08-29.78-.4-36.73-.51a3.91,3.91,0,0,1-3.44-2.19l-21-42.68-2.32,1.57A3.83,3.83,0,0,0,27,568.12Z" opacity="0.2"></path>
  <path d="M261.35,587.41,256,613.7,337.09,615s-5-30.36-46.32-26.92Z" fill="#48c4e6"></path>
  <path d="M372.82,243.62H573.25a16.11,16.11,0,0,1,16.11,16.11V403.22a16.11,16.11,0,0,1-16.11,16.11H372.82a0,0,0,0,1,0,0V243.62a0,0,0,0,1,0,0Z" transform="translate(962.18 662.95) rotate(-180)" fill="#48c4e6"></path>
  <rect x="372.5" y="341.42" width="216.86" height="23.73" transform="translate(961.86 706.56) rotate(-180)" fill="#fff" opacity="0.2"></rect>
  <rect x="459.5" y="311.6" width="71.18" height="6.41" rx="2.88" transform="translate(990.18 629.61) rotate(180)" fill="#fff" opacity="0.2"></rect>
  <rect x="392.81" y="292.04" width="53.23" height="39.12" rx="6.9" transform="translate(838.84 623.19) rotate(-180)" fill="#fdb216"></rect>
  <rect x="424.55" y="387.91" width="79.84" height="8.66" rx="3.88" transform="translate(928.94 784.47) rotate(180)" fill="#fff" opacity="0.2"></rect>
  <rect x="425.19" y="272.48" width="60.92" height="8.66" rx="3.88" transform="translate(911.3 553.61) rotate(-180)" fill="#ababab"></rect>
  <rect x="388.64" y="255.81" width="49.38" height="8.66" rx="3.88" transform="translate(826.66 520.27) rotate(180)" fill="#fff" opacity="0.2"></rect>
  <rect x="390.24" y="387.91" width="28.22" height="8.66" rx="3.88" transform="translate(808.7 784.47) rotate(-180)" fill="#fff" opacity="0.2"></rect>
  <rect x="389.6" y="272.48" width="28.22" height="8.66" rx="3.88" transform="translate(807.42 553.61) rotate(180)" fill="#ababab"></rect>
  <line x1="428.82" y1="292.31" x2="428.82" y2="321.44" fill="none" stroke="#000" stroke-miterlimit="10" opacity="0.2"></line>
  <line x1="407.33" y1="321.44" x2="446.17" y2="321.44" fill="none" stroke="#000" stroke-miterlimit="10" opacity="0.2"></line>
  <line x1="392.52" y1="321.44" x2="403.5" y2="321.44" fill="none" stroke="#000" stroke-miterlimit="10" opacity="0.2"></line>
  <polyline points="412.1 291.83 412.1 311.57 392.36 311.57" fill="none" stroke="#000" stroke-miterlimit="10" opacity="0.2"></polyline>
  <line x1="411.94" y1="301.86" x2="408.44" y2="301.86" fill="none" stroke="#000" stroke-miterlimit="10" opacity="0.2"></line>
  <line x1="404.78" y1="302.02" x2="392.68" y2="302.02" fill="none" stroke="#000" stroke-miterlimit="10" opacity="0.2"></line>
  <line x1="438.85" y1="302.18" x2="428.5" y2="302.18" fill="none" stroke="#000" stroke-miterlimit="10" opacity="0.2"></line>
  <line x1="445.7" y1="302.18" x2="442.67" y2="302.18" fill="none" stroke="#000" stroke-miterlimit="10" opacity="0.2"></line>
  <line x1="434.87" y1="311.57" x2="428.98" y2="311.57" fill="none" stroke="#000" stroke-miterlimit="10" opacity="0.2"></line>
  <line x1="446.02" y1="311.57" x2="437.26" y2="311.57" fill="none" stroke="#000" stroke-miterlimit="10" opacity="0.2"></line>
  <line x1="417.59" y1="321.68" x2="417.59" y2="330.84" fill="none" stroke="#000" stroke-miterlimit="10" opacity="0.2"></line>
  <path d="M457,233.46s7.41-1.79,9,2.47c0,0,6.73,13.91-3.59,10.77,0,0,4.93,9.2,0,10.1,0,0-4.27,2.91-6.74-6.51,0,0,1.35,4.94-4,4.94,0,0-3.59.44-5.17-5.61,0,0,1.13,4.26-3.81,4.71,0,0-5.61,1.79-8.08-10.77H422.86s4.69-18.6,14.56-11c0,0,4.93-5.57,8.91-1.12C446.33,231.48,452.48,226.68,457,233.46Z" fill="#ef9a6d"></path>
  <line x1="456.97" y1="233.46" x2="462.36" y2="246.7" fill="none" stroke="#cd6d33" stroke-linecap="round" stroke-linejoin="round"></line>
  <line x1="455.62" y1="250.29" x2="446.33" y2="231.48" fill="none" stroke="#cd6d33" stroke-linecap="round" stroke-linejoin="round"></line>
  <line x1="446.42" y1="249.62" x2="437.42" y2="232.6" fill="none" stroke="#cd6d33" stroke-linecap="round" stroke-linejoin="round"></line>
  <line x1="434.53" y1="243.56" x2="431.85" y2="237.22" fill="none" stroke="#cd6d33" stroke-linecap="round" stroke-linejoin="round"></line>
  <path d="M293.57,154.31l-11.42,26.07s0,17.17,28.32,16.57l6.93-16.27Z" fill="#ef9a6d"></path>
  <path d="M317.4,180.68,310.47,197s-16-8.13-14.16-24.1C296.31,172.85,303.54,184,317.4,180.68Z" fill="#cd6d33"></path>
  <rect x="296.6" y="116.07" width="40.67" height="65.97" rx="18.24" transform="translate(567.21 394.06) rotate(-160.8)" fill="#ef9a6d"></rect>
  <path d="M340.3,143.79s9.5-7.27,7.5-17.85a4,4,0,0,1,1.26-3.72c3.34-3,9.4-9.92,2.17-15.17a1.29,1.29,0,0,1-.48-1.27c.26-1.38.37-4.43-2.37-8.06a2.38,2.38,0,0,0-3.66-.18c-2.53,2.83-8,7-15.87,3,0,0-33.44-15.36-38,8.13,0,0-15.06.61-5.42,34.65l13.25,1.2s9.64-2.71,6.63-20.48c0,0,16,8.08,34.37,5.07A20.32,20.32,0,0,1,340.3,143.79Z" fill="#360f12"></path>
  <circle cx="291.64" cy="147.7" r="7.98" fill="#ef9a6d"></circle>
  <path d="M279.47,276.7l1.5,22.74,81.14,56.95-6,29.14a124.29,124.29,0,0,0-27.23-18.15l-65.2-32.72s-24.84-11.7-25.56-26.75l-2.62-25.79Z" fill="#ef9a6d"></path>
  <path d="M362.11,356.39l-6.46-4.65s-4.75,20-9.17,26.52l9.66,7.27S361.36,363,362.11,356.39Z" fill="#cd6d33"></path>
  <path d="M365.14,354.52a11,11,0,0,0,.63-4.15,16.13,16.13,0,0,0-.63-4.36c-.53-1.92-1-5.23,1.13-6.87a1.81,1.81,0,0,1,1.4-.37c1.47.24,4.3,2,5.11,12.2,0,.51.05,1,0,1.54l-.15,6.43a52.09,52.09,0,0,0,10.48-.16s7,.49-1,7.69c0,0,5.23-.49,4.74,4.42,0,0,.17,2.46-6.38,4.59,0,0,3.76.5,3.93,3.26a3.06,3.06,0,0,1-.94,2.29,10.2,10.2,0,0,1-6.59,2.8s4.74,2,.32,5.07c0,0-5.4,3.27-19-1.64,0,0-7.53-3.43-1.64-7.53,0,0-4.26-4.58.65-8.35,0,0-3.27-4.58,2.13-7.36a6.21,6.21,0,0,1,2.7-7.63S364,357,365.14,354.52Z" fill="#ef9a6d"></path>
  <path d="M382.17,366.47s-13.59,2.62-22.76-2.45" fill="none" stroke="#cd6d33" stroke-linecap="round" stroke-linejoin="round"></path>
  <path d="M380.53,375.48s-16.7.82-23.25-4.1" fill="none" stroke="#cd6d33" stroke-linecap="round" stroke-linejoin="round"></path>
  <path d="M376.93,383.83s-12.28.49-20.3-4.1" fill="none" stroke="#cd6d33" stroke-linecap="round" stroke-linejoin="round"></path>
  <path d="M662,324.33v4h5.41v2.56H662v4.26h6.11v2.63h-9.34V321.7h9.34v2.63Z" fill="#fff"></path>
  <path d="M680.24,337.81l-3.55-6.27h-1.52v6.27h-3.23V321.73h6a7.18,7.18,0,0,1,3.18.65,4.63,4.63,0,0,1,2,1.78,5,5,0,0,1-.27,5.37,4.69,4.69,0,0,1-2.74,1.76l3.85,6.52Zm-5.07-8.69h2.69a2.7,2.7,0,0,0,2-.63,2.36,2.36,0,0,0,.65-1.76,2.26,2.26,0,0,0-.65-1.72,2.74,2.74,0,0,0-2-.61h-2.69Z" fill="#fff"></path>
  <path d="M695.93,337.81l-3.55-6.27h-1.52v6.27h-3.23V321.73h6a7.12,7.12,0,0,1,3.18.65,4.57,4.57,0,0,1,2,1.78,5,5,0,0,1-.26,5.37,4.75,4.75,0,0,1-2.75,1.76l3.85,6.52Zm-5.07-8.69h2.7a2.67,2.67,0,0,0,2-.63,2.36,2.36,0,0,0,.65-1.76,2.26,2.26,0,0,0-.65-1.72,2.71,2.71,0,0,0-2-.61h-2.7Z" fill="#fff"></path>
  <path d="M706.64,336.91a7.82,7.82,0,0,1-3-2.94,8.63,8.63,0,0,1,0-8.47,7.82,7.82,0,0,1,3-2.94,8.67,8.67,0,0,1,8.31,0,7.76,7.76,0,0,1,3,2.94,8.7,8.7,0,0,1,0,8.47,7.72,7.72,0,0,1-3,2.94,8.65,8.65,0,0,1-8.3,0Zm6.71-2.47a4.57,4.57,0,0,0,1.73-1.88,6.25,6.25,0,0,0,.62-2.84,6.17,6.17,0,0,0-.62-2.82,4.43,4.43,0,0,0-1.73-1.85,5,5,0,0,0-2.56-.65,5.06,5.06,0,0,0-2.57.65,4.45,4.45,0,0,0-1.74,1.85,6.17,6.17,0,0,0-.62,2.82,6.25,6.25,0,0,0,.62,2.84,4.59,4.59,0,0,0,1.74,1.88,5.06,5.06,0,0,0,2.57.65A5,5,0,0,0,713.35,334.44Z" fill="#fff"></path>
  <path d="M730.63,337.81l-3.55-6.27h-1.52v6.27h-3.23V321.73h6a7.12,7.12,0,0,1,3.18.65,4.57,4.57,0,0,1,2,1.78,5,5,0,0,1-.26,5.37,4.75,4.75,0,0,1-2.75,1.76l3.85,6.52Zm-5.07-8.69h2.7a2.69,2.69,0,0,0,2-.63,2.36,2.36,0,0,0,.65-1.76,2.26,2.26,0,0,0-.65-1.72,2.73,2.73,0,0,0-2-.61h-2.7Z" fill="#fff"></path>
</svg>
