<svg xmlns="http://www.w3.org/2000/svg" width="865.76" height="682.89" viewBox="0 0 865.76 682.89"><path d="M807.49,388.74C696.35,596,525,618.67,525,618.67a808.89,808.89,0,0,1-83.41,10.39c-1.78.14-3.55.25-5.32.35-177.73,11.17-279.18-50-335.51-110.84C42.59,455.76,17.84,368.45,36.77,285,69.14,142.28,206.88,96.25,206.88,96.25c29.8-11.8,62-16.42,93.07-16.9C382.4,78,456.8,105.83,456.8,105.83a639.65,639.65,0,0,0,66.86,18.94c46.05,10.16,67.93,8.06,67.93,8.06,80.93-13.14,136.18-.12,136.18-.12,78.72,16.63,102.11,75.66,106.65,127.7C838.3,304.84,828.57,349.44,807.49,388.74Z" fill="#0071f2"/><path d="M807.48,388.73c-99.23,185-246.5,222.95-276.92,229-3.65.72-5.62,1-5.62,1q-10.89,1.91-21.46,3.5l-.77.11q-32,4.79-61.18,6.78c-1.77.13-3.55.25-5.32.34q-18.81,1.19-36.48,1.31h-.79q-16.56.12-32.15-.63-16.21-.76-31.41-2.39a443,443,0,0,1-92.33-19.43q-2.28-.75-4.51-1.52c-2.5-.85-5-1.73-7.4-2.63a349.5,349.5,0,0,1-56.75-26.63c-.32-.16-.63-.35-.95-.55-2.66-1.55-5.3-3.16-7.87-4.77A320.21,320.21,0,0,1,138,552.85a315.36,315.36,0,0,1-37.31-34.29C42.58,455.75,17.84,368.44,36.76,285,60,182.66,137.34,130,179.28,108.46c6.57-3.38,12.27-6,16.75-7.93l.73-.32c6.38-2.71,10.11-4,10.11-4q7.66-3,15.53-5.45a250,250,0,0,1,42.66-9l.58-.07c.8-.11,1.61-.2,2.41-.3l.61-.06q2-.24,3.93-.42c9.13-.92,18.25-1.42,27.28-1.56H300C382.4,78,456.79,105.83,456.79,105.83a639.65,639.65,0,0,0,66.86,18.94q5.64,1.24,10.8,2.25h0l.14,0q4.64.9,8.88,1.64l.14,0,.23,0c3.52.61,6.85,1.13,10,1.58h0c25.44,3.66,37.68,2.48,37.68,2.48q11.22-1.81,21.75-3l.52-.06c68.63-7.73,113.92,3,113.92,3,18.06,3.81,33.21,9.86,45.89,17.55l.18.1c42.43,25.82,57.08,70,60.57,110C838.29,304.84,828.56,349.43,807.48,388.73Z" fill="#fff" opacity="0.7"/><path d="M413.55,147.91a36.65,36.65,0,0,1,8.87-3.86l1.82-8.78,14.84-.25,2.15,8.7a36.9,36.9,0,0,1,9,3.54l7.52-4.92,10.68,10.32-4.65,7.66a36,36,0,0,1,3.86,8.87l8.77,1.83.27,14.84L468,188a35.69,35.69,0,0,1-3.55,9l4.93,7.52L459,215.2l-7.67-4.65a36,36,0,0,1-8.87,3.85l-1.83,8.78-14.83.26-2.15-8.7a36.53,36.53,0,0,1-9-3.55l-7.52,4.92L396.5,205.8l4.64-7.66a36.89,36.89,0,0,1-3.86-8.88l-8.77-1.82-.27-14.91,8.71-2.14a36,36,0,0,1,3.54-9l-4.91-7.52,10.3-10.68,7.67,4.66Zm7.93,19.76a15.91,15.91,0,1,0,22.5-.39h0A15.92,15.92,0,0,0,421.48,167.67Z" fill="#f5f5f5"/><path d="M421.48,167.67a11.86,11.86,0,0,1,3-2.6,15.83,15.83,0,0,1,10.38-2.45,16.06,16.06,0,0,1,7.07,2.5,16.31,16.31,0,0,1-6.18,29.73,15.56,15.56,0,0,1-4.91.09,16.14,16.14,0,0,1-4.52-1.29,16.58,16.58,0,0,1-6.63-5.48,16.23,16.23,0,0,1-2.75-7A15.89,15.89,0,0,1,419,170.73a12.06,12.06,0,0,1,2.5-3c.09.07-1,1.07-2.15,3.22a15.85,15.85,0,0,0-1.83,10.23,15.51,15.51,0,1,0,17.22-17.81,15.88,15.88,0,0,0-10.12,2.15A25.66,25.66,0,0,0,421.48,167.67Z" fill="#f5f5f5"/><path d="M413.55,147.91a2.87,2.87,0,0,1-.49-.26l-1.47-.85-5.79-3.41H406l-10.25,10.74v-.29l4.94,7.52.09.14-.08.14a35.54,35.54,0,0,0-3.48,8.94v.17H397l-8.71,2.15.25-.32c.1,4.66.19,9.67.3,14.82l-.29-.34,8.78,1.82h.23l.06.22a36.46,36.46,0,0,0,3.84,8.77l.11.2-.11.21L396.84,206l-.06-.51,10.69,10.3-.54-.06c2.35-1.52,4.9-3.22,7.52-4.92l.22-.14.24.13a35.83,35.83,0,0,0,8.89,3.49l.26.07.06.26c.67,2.72,1.4,5.7,2.15,8.71l-.44-.34,14.84-.27-.44.36,1.83-8.79.05-.27.27-.07a35.74,35.74,0,0,0,8.74-3.8h0l.24-.14.24.14,7.67,4.64-.57.07L469,204.14v.56c-1.65-2.52-3.3-5-4.91-7.52L464,197l.13-.24a35.48,35.48,0,0,0,3.5-8.89l.07-.26h.26l8.71-2.15-.33.42q-.14-7.6-.25-14.83l.33.4-8.77-1.84-.24,0-.07-.24a36.18,36.18,0,0,0-3.8-8.78l-.12-.2.12-.21,4.66-7.66.06.48-10.65-10.33H458l-7.52,4.89-.16.11-.18-.09a36.69,36.69,0,0,0-8.91-3.55h-.17v-.17c-.77-3.22-1.47-6-2.15-8.71l.27.2-14.84.2.19-.16c-.75,3.5-1.37,6.37-1.88,8.76v.09h-.09a37.58,37.58,0,0,0-6.77,2.61l-1.61.84a5.12,5.12,0,0,1-.52.27,3.3,3.3,0,0,1,.49-.34c.34-.21.85-.52,1.56-.9a34.36,34.36,0,0,1,6.77-2.76l-.1.11,1.77-8.79V135h.17l14.83-.34h.22l.05.22,2.15,8.7-.21-.22a36.45,36.45,0,0,1,9.07,3.54h-.33l7.52-4.93.23-.15.2.19c3.39,3.23,6.93,6.68,10.75,10.29l.21.21-.16.26-4.63,7.67v-.41a36.71,36.71,0,0,1,3.91,9l-.31-.29,8.78,1.82.33.06V171q.13,7.23.27,14.83v.35l-.35.08-8.7,2.15.32-.32a37.19,37.19,0,0,1-3.68,9.2v-.48l4.92,7.52.19.31-.24.25-10.33,10.66-.25.27-.31-.19-7.67-4.65h.47a36.71,36.71,0,0,1-9,3.91l.32-.35c-.63,3-1.25,6-1.82,8.78l-.08.35h-.36l-14.84.26h-.35l-.09-.35-2.15-8.72.32.34a37.85,37.85,0,0,1-9.11-3.6h.45l-7.52,4.91-.29.18-.23-.24-10.67-10.32-.23-.23.16-.27,4.67-7.66v.39a36.25,36.25,0,0,1-3.88-9l.28.26-8.78-1.84-.28-.06v-.28q-.14-7.83-.23-14.84v-.26l.26-.06,8.72-2.15-.22.22a36.06,36.06,0,0,1,3.59-9.05v.26L395.35,154l-.11-.16.13-.13,10.37-10.61.09-.09.09.07,5.65,3.51,1.45.92A5,5,0,0,1,413.55,147.91Z" fill="#f5f5f5"/><path d="M670.45,494.32h0L668,484.11A42.4,42.4,0,0,1,657.42,480l-8.79,5.76h0l-12.52-12.09h0l5.43-9a43.21,43.21,0,0,1-4.5-10.37l-10.29-2.15h0l-.31-17.41h0l10.19-2.5a42.91,42.91,0,0,1,4.14-10.52L635,412.94h0l12.1-12.63h0l9,5.44a42.13,42.13,0,0,1,10.37-4.51L668.59,391h0l17.4-.31h0l2.49,10.18A43.25,43.25,0,0,1,699,405l8.79-5.76h0l12.52,12.09h0l-5.44,9a42.75,42.75,0,0,1,4.51,10.38l10.29,2.15h0l.31,17.4h0L719.8,452.7a42.91,42.91,0,0,1-4.14,10.52l5.76,8.78h0l-12,12.66h0l-9-5.44a42.29,42.29,0,0,1-10.37,4.51L687.93,494h0Zm-13-14.42h0A43.08,43.08,0,0,0,668,484.05h0l2.5,10.18,17.33-.31,2.15-10.28h0a43.21,43.21,0,0,0,10.39-4.51h0l9,5.43,12.05-12.48-5.75-8.78h0a42.47,42.47,0,0,0,4.13-10.54h0l10.19-2.49-.3-17.34-10.28-2.15h0a41.92,41.92,0,0,0-4.52-10.39h0l5.44-9-12.47-12L699,405.14h0A42,42,0,0,0,688.47,401h0L686,390.81l-17.33.31-2.15,10.28h0a42.85,42.85,0,0,0-10.39,4.52h0l-9-5.5-12,12.47,5.75,8.79h0a42.89,42.89,0,0,0-4.14,10.54h0l-10.18,2.49.3,17.34,10.28,2.15h0a42.68,42.68,0,0,0,4.52,10.39h0l-5.43,9,12.47,12.05Zm21.37-19.28a18.68,18.68,0,0,1-.32-37.35h.34a18.68,18.68,0,1,1,.32,37.35h-.34Zm0-37.31h-.33a18.62,18.62,0,1,0,.31,37.24h.34a18.62,18.62,0,0,0-.32-37.24Z" fill="#e0e0e0"/><path d="M665.37,429a14.28,14.28,0,0,1,3.48-3.05A18.57,18.57,0,0,1,681,423.06a18.88,18.88,0,0,1,8.27,2.94A19.09,19.09,0,0,1,682,460.8a17.22,17.22,0,0,1-5.73.09,17.76,17.76,0,0,1-5.3-1.5,18.94,18.94,0,0,1-8.54-26.86,14.37,14.37,0,0,1,2.92-3.58c.11.09-1.07,1.23-2.56,3.78a18.63,18.63,0,0,0-2.06,11.94,18.2,18.2,0,0,0,3.22,7.77,18.49,18.49,0,0,0,7.45,6,18.39,18.39,0,0,0,10.45,1.28,18.07,18.07,0,0,0,14.87-15.39,17.12,17.12,0,0,0-.07-5.44,16.71,16.71,0,0,0-1.58-5,18.15,18.15,0,0,0-14.15-10.15,18.52,18.52,0,0,0-11.82,2.47C666.57,427.81,665.48,429.08,665.37,429Z" fill="#ebebeb"/><path d="M656.12,405.83a4,4,0,0,1-.58-.31l-1.72-1-6.77-4h.21l-12,12.55v-.34l5.8,8.77.1.15-.09.17A42,42,0,0,0,637,432.3l-.06.21h-.2L626.56,435l.29-.37q.17,8.22.35,17.38l-.34-.41,10.29,2.15.26.06.08.25A42.35,42.35,0,0,0,642,464.37l.15.23-.15.25-5.43,9-.07-.59L649,485.31l-.63-.07,8.78-5.76.26-.17.27.15a42.46,42.46,0,0,0,10.42,4.09l.3.07.08.31L671,494.14l-.52-.41,17.38-.31-.51.43c.68-3.23,1.41-6.76,2.15-10.3l.06-.31.32-.08a42.82,42.82,0,0,0,10.25-4.46h0l.28-.16.28.16,9,5.45-.67.08,12.08-12.49-.07.65-5.75-8.79-.17-.27.15-.28a41.9,41.9,0,0,0,4.11-10.41l.07-.3.3-.07,10.21-2.5-.39.51q-.13-8.91-.29-17.38l.4.47-10.28-2.15h-.29l-.08-.28a41.85,41.85,0,0,0-4.44-10.28l-.15-.25.15-.24,5.45-9,.07.55-12.48-12.1h.51l-8.8,5.73-.19.13-.21-.11a42.61,42.61,0,0,0-10.44-4.15l-.21-.05V401l-2.46-10.21.32.24-17.39.22.23-.18-2.15,10.27v.1h-.1a43.76,43.76,0,0,0-8,3.05l-1.87,1a4.54,4.54,0,0,1-.62.32,4.6,4.6,0,0,1,.58-.4c.4-.25,1-.61,1.83-1.07a40.94,40.94,0,0,1,7.94-3.23l-.12.13c.56-2.8,1.24-6.19,2.07-10.29v-.19h.19l17.39-.39h.25l.06.25L689,400.79l-.26-.26a43.23,43.23,0,0,1,10.64,4.15H699l8.76-5.78.28-.18.24.22,12.43,12.11.26.25-.18.3-5.44,9v-.48a43.33,43.33,0,0,1,4.59,10.51l-.37-.35,10.3,2.15.37.09v.39q.16,8.48.32,17.38v.41l-.39.09-10.21,2.51.39-.38a42.74,42.74,0,0,1-4.21,10.68V463q2.85,4.31,5.76,8.79l.23.36-.29.3L709.74,485l-.3.32-.36-.23-9-5.44h.54a42.79,42.79,0,0,1-10.52,4.57l.38-.41c-.73,3.54-1.46,7-2.15,10.29l-.08.42h-.43l-17.39.3H670l-.09-.4c-.86-3.53-1.71-7-2.5-10.21l.38.37a42.67,42.67,0,0,1-10.67-4.21h.53l-8.79,5.75-.33.22-.29-.28L635.78,474l-.28-.27.21-.32,5.45-9v.48a43.25,43.25,0,0,1-4.54-10.52l.33.31-10.28-2.14-.33-.07v-.34c-.09-6.1-.17-11.91-.26-17.38v-.31l.3-.06,10.21-2.48-.26.25a43.14,43.14,0,0,1,4.22-10.6v.32c-2.06-3.22-4-6.14-5.72-8.81l-.12-.18.15-.15L647,400.31l.1-.1.1.08,6.62,4.11,1.7,1.08A5,5,0,0,1,656.12,405.83Z" fill="#ebebeb"/><path d="M739.69,369.08a21.91,21.91,0,0,1,5.48-2.39l1.12-5.37,9.17-.16,1.32,5.37a22.64,22.64,0,0,1,5.56,2.15l4.63-3,6.59,6.36-2.9,4.73a22.64,22.64,0,0,1,2.38,5.48l5.37,1.07.16,9.17-5.37,1.32a22.57,22.57,0,0,1-2.15,5.55l3,4.63-6.36,6.6L763,407.69a22.23,22.23,0,0,1-5.48,2.37l-1.07,5.43-9.17.16-1.32-5.37a22.41,22.41,0,0,1-5.55-2.15l-4.63,3-6.6-6.36,2.87-4.74a22.25,22.25,0,0,1-2.38-5.48l-5.42-1.13-.16-9.16,5.37-1.32a22.64,22.64,0,0,1,2.15-5.56l-3-4.63,6.36-6.59,4.74,2.88Zm4.89,12.2a9.83,9.83,0,1,0,13.9-.25,9.83,9.83,0,0,0-13.9.25Z" fill="#e0e0e0"/><path d="M744.58,381.28a7.37,7.37,0,0,1,1.82-1.61,9.85,9.85,0,0,1,6.45-1.52,10,10,0,0,1,7.88,5.53,9.61,9.61,0,0,1,.9,2.76,9.27,9.27,0,0,1,0,3,10,10,0,0,1-8.29,8.59,9.06,9.06,0,0,1-3,0,9.44,9.44,0,0,1-2.8-.79,10.05,10.05,0,0,1-4.09-3.39,9.93,9.93,0,0,1-.41-10.74,7.38,7.38,0,0,1,1.55-1.88,22.53,22.53,0,0,0-1.36,2,9.76,9.76,0,0,0-1.07,6.29,9.5,9.5,0,0,0,1.69,4.1,9.69,9.69,0,0,0,3.92,3.22,9.56,9.56,0,0,0,13.35-7.45,8.58,8.58,0,0,0,0-2.86,9,9,0,0,0-.83-2.63A9.83,9.83,0,0,0,757,380.1a9.6,9.6,0,0,0-4.15-1.54,9.83,9.83,0,0,0-6.25,1.3A22.16,22.16,0,0,0,744.58,381.28Z" fill="#e0e0e0"/><path d="M739.69,369.07a1.11,1.11,0,0,1-.3-.17l-.92-.51-3.56-2.15h.1l-6.32,6.63v-.17l3,4.62,0,.07v.1a22.2,22.2,0,0,0-2.15,5.52v.11h-.11l-5.37,1.33.16-.19c.06,2.88.12,5.94.19,9.16l-.19-.21,5.43,1.07h.14v.13a22,22,0,0,0,2.36,5.43l.08.11-.08.13-2.87,4.74v-.31l6.61,6.36h-.33l4.63-3,.14-.09.14.08a23,23,0,0,0,5.49,2.15h.16v.16c.42,1.69.87,3.52,1.32,5.37l-.27-.21,9.17-.16-.27.22c.35-1.72.73-3.57,1.07-5.42v-.17l.16-.05a22.39,22.39,0,0,0,5.38-2.34h0l.14-.09.15.09,4.72,2.88h-.34l6.37-6.6V404c-1.07-1.57-2-3.11-3-4.65l-.09-.14.08-.14a22.39,22.39,0,0,0,2.15-5.49v-.16h.16l5.37-1.31-.2.26c-.06-3.13-.1-6.18-.15-9.15l.2.24-5.37-1.14h-.15v-.14a22.3,22.3,0,0,0-2.35-5.42l-.08-.13.08-.13,2.88-4.73v.29l-6.59-6.38H767l-4.63,3-.11.07h-.11a22.22,22.22,0,0,0-5.5-2.15h-.12v-.11c-.47-2-.9-3.72-1.3-5.37l.16.13-9.16.11.13-.1c-.47,2.15-.85,3.94-1.17,5.42h-.06a23.38,23.38,0,0,0-4.19,1.61l-1,.52-.34.16.3-.2c.22-.13.53-.33,1-.56a22,22,0,0,1,4.19-1.7l-.06.06,1.07-5.42v-.1h.11l9.16-.19h.26V361l1.33,5.37-.13-.14a22.45,22.45,0,0,1,5.61,2.15h-.2l4.62-3,.15-.1.12.12,6.6,6.36.14.13-.09.16-2.87,4.74v-.26a23,23,0,0,1,2.42,5.54l-.2-.18,5.43,1.13h.2v.21c.06,3,.12,6,.17,9.17v.21h-.2l-5.37,1.33.2-.2a22.36,22.36,0,0,1-2.21,5.63v-.11c1,1.53,2,3.07,3,4.64l.12.18-.15.16-6.36,6.6-.16.16-.2-.12L762.91,408h.23a23.32,23.32,0,0,1-5.54,2.41l.2-.22c-.38,1.86-.77,3.71-1.07,5.43v.21h-.23l-9.15.16H747v-.21l-1.32-5.37.2.2a23.23,23.23,0,0,1-5.62-2.21h.29l-4.64,3-.17.11-.15-.14L729,405l-.14-.14.1-.17,2.88-4.72v.24a22.35,22.35,0,0,1-2.4-5.54l.17.16-5.37-1.14h-.17v-.18c0-3.23-.1-6.28-.14-9.16v-.16h.16l5.37-1.3-.14.13a22.68,22.68,0,0,1,2.23-5.59v.17l-3-4.65-.07-.09.08-.08c2.61-2.67,4.77-4.88,6.44-6.56h.07l3.48,2.15.9.57Z" fill="#e0e0e0"/><path d="M498.55,105.4A22.28,22.28,0,0,1,504,103l1.13-5.37,9.16-.16,1.32,5.37A22.25,22.25,0,0,1,521.2,105l4.63-3,6.59,6.37-2.87,4.74a21.88,21.88,0,0,1,2.38,5.48l5.43,1.07.16,9.17-5.38,1.31a22.61,22.61,0,0,1-2.14,5.56l3,4.63-6.37,6.59L521.93,144a22,22,0,0,1-5.48,2.38l-1.13,5.38-9.17.16-1.32-5.37a22.57,22.57,0,0,1-5.55-2.15l-4.63,3-6.6-6.37,2.87-4.73a22.81,22.81,0,0,1-2.38-5.48l-5.42-1.07-.16-9.17,5.37-1.32a22.86,22.86,0,0,1,2.15-5.57l-3-4.59,6.36-6.59,4.74,2.87Zm4.89,12.2a9.83,9.83,0,1,0,13.9-.24h0A9.84,9.84,0,0,0,503.44,117.6Z" fill="#e0e0e0"/><path d="M503.44,117.6a7.33,7.33,0,0,1,1.82-1.6,9.78,9.78,0,0,1,6.47-1.48A9.91,9.91,0,0,1,516,116a10.08,10.08,0,1,1-13.76,14.23,10,10,0,0,1-.41-10.75,7.38,7.38,0,0,1,1.54-1.89,23.72,23.72,0,0,0-1.34,2,9.78,9.78,0,0,0-1.07,6.3,9.64,9.64,0,0,0,5.6,7.26,9.16,9.16,0,0,0,2.66.74,8.86,8.86,0,0,0,2.86-.07,9.57,9.57,0,0,0,7-13.6,9.6,9.6,0,0,0-3.31-3.81,9.7,9.7,0,0,0-4.15-1.55,9.84,9.84,0,0,0-6.25,1.31C504.06,117,503.48,117.65,503.44,117.6Z" fill="#e0e0e0"/><path d="M498.55,105.4a1.54,1.54,0,0,1-.31-.17l-.91-.52-3.56-2.15h.1l-6.32,6.63V109l3.05,4.62v.17a22.36,22.36,0,0,0-2.15,5.52v.11h-.11L483,120.76l.16-.2c.05,2.89.12,6,.18,9.16l-.18-.21,5.43,1.07h.14v.14a22,22,0,0,0,2.36,5.37l.07.13-.07.12-2.87,4.74v-.3l6.61,6.35h-.34c1.46-.95,3-2,4.64-3l.14-.08.13.08a22.22,22.22,0,0,0,5.5,2.15H505v.16c.4,1.69.87,3.53,1.32,5.38l-.27-.22,9.15-.16-.27.22c.37-1.71.75-3.56,1.08-5.38v-.17h.16a22,22,0,0,0,5.37-2.35h0l.15-.09.15.09,4.9,3h-.34l6.36-6.59v.35l-3-4.63-.09-.14.08-.15a22.3,22.3,0,0,0,2.15-5.49v-.17h.16l5.37-1.32-.2.27c-.06-3.12-.11-6.19-.15-9.16l.2.24-5.43-1.07h-.15v-.15a22,22,0,0,0-2.35-5.37l-.07-.13.07-.12,2.88-4.73v.29l-6.53-6.56H526l-4.64,3-.1.06-.11-.06a22.22,22.22,0,0,0-5.5-2.15h-.12v-.12l-1.3-5.37.16.13-9.16.12.12-.1c-.47,2.15-.84,3.93-1.16,5.37h0a24.67,24.67,0,0,0-4.19,1.61l-1,.52a1.73,1.73,0,0,1-.33.17,2.23,2.23,0,0,1,.3-.2c.21-.13.52-.33,1-.56a21.44,21.44,0,0,1,4.19-1.71l-.06.07c.29-1.48.65-3.22,1.07-5.43v-.1h.11l9.17-.2h.12v.13c.41,1.66.85,3.41,1.34,5.37l-.13-.13a22.74,22.74,0,0,1,5.61,2.15h-.21l4.62-3,.15-.1.12.12,6.61,6.35.13.13-.1.16-2.86,4.74v-.25a22.64,22.64,0,0,1,2.34,5.64l-.19-.17,5.37,1.07h.21v.21c.05,3,.12,6,.17,9.16V129h-.21l-5.37,1.32.21-.21a22.24,22.24,0,0,1-2.22,5.63v-.28l3.11,4.78.12.18-.15.16-6.36,6.6-.17.16-.19-.12-4.74-2.87H522a23.15,23.15,0,0,1-5.54,2.41l.2-.22c-.39,1.87-.77,3.72-1.14,5.37v.22h-.22l-9.15.15h-.23l-.05-.22-1.31-5.37.19.21a23.29,23.29,0,0,1-5.62-2.23h.28l-4.64,3-.25.16-.15-.15-6.59-6.37-.15-.14.11-.17,2.88-4.73v.25a22.82,22.82,0,0,1-2.4-5.53l.18.16L483,130h-.17v-.17c0-3.23-.09-6.28-.14-9.17v-.16h.15l5.37-1.31-.13.14a22.18,22.18,0,0,1,2.22-5.6v.17l-3-4.64-.06-.09.07-.09,6.45-6.55h.12l3.48,2.15.9.56Z" fill="#e0e0e0"/><path d="M574.71,470.26a15.7,15.7,0,0,1,3.83-1.66l.78-3.78,6.38-.11.93,3.75a16,16,0,0,1,3.88,1.52l3.22-2.14,4.6,4.45-2,3.3a16.17,16.17,0,0,1,1.65,3.82l3.79.79.1,6.38-3.75.93a15.51,15.51,0,0,1-1.52,3.87l2.15,3.22-4.44,4.59-3.3-2a15.56,15.56,0,0,1-3.81,1.66l-.8,3.79-6.38.1-.91-3.75a15.43,15.43,0,0,1-3.88-1.52L572,499.62l-4.58-4.44,2-3.3a15.29,15.29,0,0,1-1.67-3.82l-3.77-.79-.12-6.38,3.75-.92a15.24,15.24,0,0,1,1.53-3.87L567,472.87l4.43-4.59,3.3,2Zm3.41,8.51a6.86,6.86,0,1,0,9.69-.15l0,0a6.86,6.86,0,0,0-9.67.14Z" fill="#e0e0e0"/><path d="M578.12,478.74a5.07,5.07,0,0,1,1.28-1.07,6.79,6.79,0,0,1,4.47-1.08,7,7,0,0,1,3,1.08,7.12,7.12,0,0,1,2.45,2.77,6.84,6.84,0,0,1,.66,4,7,7,0,0,1-5.78,6,6.47,6.47,0,0,1-2.15,0,6.32,6.32,0,0,1-1.94-.55,7,7,0,0,1-2.85-2.36,6.94,6.94,0,0,1-1.19-3,6.82,6.82,0,0,1,.9-4.5,4.85,4.85,0,0,1,1.08-1.31,16.13,16.13,0,0,0-.94,1.39,6.78,6.78,0,0,0,.42,7.24,6.68,6.68,0,0,0,12-3,6.36,6.36,0,0,0-.58-3.82,6.66,6.66,0,0,0-5.2-3.73,6.79,6.79,0,0,0-4.36.9C578.56,478.34,578.15,478.81,578.12,478.74Z" fill="#e0e0e0"/><path d="M574.71,470.26l-.21-.11-.63-.37-2.49-1.47h.08l-4.41,4.63v-.13L569.2,476h0v.07a15.6,15.6,0,0,0-1.49,3.84V480h-.08l-3.75.92.11-.13c0,2,.09,4.14.13,6.39l-.12-.15,3.78.78h.09v.1a16,16,0,0,0,1.64,3.78l.06.08-.06.09-2,3.3V495l4.6,4.44h-.22l3.22-2.15.1-.06.09.05a16.07,16.07,0,0,0,3.84,1.51h.11v.11c.29,1.18.6,2.45.91,3.75l-.18-.15,6.38-.11-.18.16.78-3.79v-.11h.12a15.72,15.72,0,0,0,3.76-1.64h0l.1-.06.1.06,3.3,2h-.24c1.5-1.56,3-3.08,4.43-4.6v.25l-2.15-3.22-.06-.1.06-.1a15.44,15.44,0,0,0,1.51-3.83v-.11H598l3.75-.91-.14.18c0-2.15-.08-4.28-.11-6.38l.14.17-3.77-.78h-.11v-.1a15.27,15.27,0,0,0-1.63-3.78l-.06-.09.06-.08,2-3.3v.2L593.62,468h.2l-3.23,2.15h-.15a15.08,15.08,0,0,0-3.83-1.52h-.08v-.07c-.32-1.37-.62-2.6-.9-3.77l.12.1-6.4.09.09-.08c-.32,1.51-.59,2.74-.81,3.77h0a17,17,0,0,0-2.91,1.08l-.69.36-.23.12a1,1,0,0,1,.21-.15l.68-.39a16,16,0,0,1,2.91-1.18h0c.21-1.07.46-2.28.76-3.78v0h.08l6.38-.14h.1v.09l.93,3.75-.09-.1a16.21,16.21,0,0,1,3.91,1.53h-.15l3.22-2.15.11-.06.08.08,4.6,4.43.1.08-.07.12-2,3.3v-.18a15.52,15.52,0,0,1,1.68,3.85l-.14-.12,3.78.78H602v.14q0,3.12.12,6.39v.15H602l-3.75.93.14-.14a15.35,15.35,0,0,1-1.53,3.92v-.21l2.14,3.23.09.13-.11.1c-1.43,1.52-2.91,3.06-4.43,4.6l-.11.12-.13-.09-3.3-2h.19a15.49,15.49,0,0,1-3.85,1.67l.14-.15c-.28,1.3-.55,2.59-.8,3.78v.15h-.15l-6.44.11h-.16v-.15c-.32-1.29-.63-2.58-.92-3.75l.14.14a15.62,15.62,0,0,1-4-1.46h.19l-3.22,2.15-.13.09-.09-.11-4.6-4.44-.1-.1.08-.11,2-3.3V492a16.08,16.08,0,0,1-1.66-3.86l.12.11-3.77-.8h-.13v-.12c0-2.24-.07-4.38-.1-6.39v-.1h.11l3.75-.91-.09.09a15.64,15.64,0,0,1,1.55-3.9v.12c-.75-1.16-1.46-2.26-2.15-3.23V473l.06-.05,4.46-4.58h0l2.43,1.51.63.4Z" fill="#e0e0e0"/><path d="M698.68,328.59a13.87,13.87,0,0,1,3.22-1.43l.68-3.22,5.48-.1.79,3.23a12.76,12.76,0,0,1,3.33,1.31l2.77-1.82,3.95,3.81-1.72,2.83a13.66,13.66,0,0,1,1.43,3.28l3.22.68.1,5.49-3.23.78a12.9,12.9,0,0,1-1.31,3.33l1.82,2.77-3.8,4-2.77-1.73a13.4,13.4,0,0,1-3.22,1.41l-.68,3.23-5.49.09-.78-3.22a13.82,13.82,0,0,1-3.33-1.31l-2.77,1.82-4-3.82,1.72-2.83a13.68,13.68,0,0,1-1.42-3.23l-3.22-.67-.1-5.48,3.23-.8a13.82,13.82,0,0,1,1.31-3.33l-1.82-2.77,3.82-3.95,2.83,1.72Zm2.92,7.31a5.89,5.89,0,1,0,8.32-.14h0a5.9,5.9,0,0,0-8.31.15Z" fill="#f5f5f5"/><path d="M701.61,335.9a4.44,4.44,0,0,1,1.07-1,5.85,5.85,0,0,1,3.84-.91,5.92,5.92,0,0,1,4.72,3.31,6,6,0,0,1,.57,3.46,6.15,6.15,0,0,1-1.64,3.39,6,6,0,0,1-3.33,1.75,5.5,5.5,0,0,1-1.81,0,5.42,5.42,0,0,1-1.67-.48,5.94,5.94,0,0,1-3-7.84c.1-.22.2-.42.32-.63a4.55,4.55,0,0,1,.93-1.12,6.64,6.64,0,0,0-.82,1.19,6,6,0,0,0-.64,3.77,5.73,5.73,0,0,0,3.36,4.35,5.09,5.09,0,0,0,1.58.44,5.51,5.51,0,0,0,1.72,0,5.7,5.7,0,0,0,4.69-4.87,4.91,4.91,0,0,0,0-1.71,5.74,5.74,0,0,0-5-4.77,5.87,5.87,0,0,0-3.75.78A14.09,14.09,0,0,0,701.61,335.9Z" fill="#f5f5f5"/><path d="M698.68,328.59l-.19-.09-.54-.32-2.15-1.26h.06l-3.78,4v-.11l1.83,2.77h0v.05a13.08,13.08,0,0,0-1.29,3.31V337h-.07l-3.22.8.1-.12c0,1.73.06,3.57.1,5.49l-.1-.13,3.22.67h.09v.07a13.09,13.09,0,0,0,1.41,3.23v.15c-.52.88-1.07,1.84-1.72,2.83v-.18l4,3.8h-.19l2.77-1.82.07-.06.09.06a13.73,13.73,0,0,0,3.29,1.29h.09v.09c.25,1,.53,2.15.8,3.23l-.16-.13,5.48-.1-.16.13c.21-1,.45-2.15.67-3.22V353h.1a12.66,12.66,0,0,0,3.22-1.41h0l.09-.05.08.05,2.84,1.72h-.21l3.81-3.95v.21l-1.82-2.77v-.17a13.48,13.48,0,0,0,1.29-3.29v-.1h.1l3.22-.79-.12.16c0-1.87,0-3.7-.09-5.48l.13.14-3.23-.68h-.09v-.08a13.09,13.09,0,0,0-1.41-3.23v-.15l1.73-2.82v.17l-3.94-3.83H715l-2.77,1.81h-.13a13.22,13.22,0,0,0-3.3-1.31h-.07V327c-.29-1.17-.53-2.22-.78-3.22l.1.08-5.48.07.07,0c-.28,1.29-.5,2.35-.7,3.22h0a14.06,14.06,0,0,0-2.5,1l-.59.31-.19.1.18-.13c.12-.08.31-.2.57-.34a14,14,0,0,1,2.51-1h0c.18-.88.4-1.94.66-3.22v-.06h.06l5.48-.12h.09v.07c.24,1,.51,2.06.8,3.23l-.08-.08a14,14,0,0,1,3.36,1.31h-.13l2.77-1.81.09-.07.07.08,4,3.8.07.08v.09l-1.7,2.84V333a13.22,13.22,0,0,1,1.43,3.32l-.1-.11,3.22.67h.12V337c0,1.78.07,3.61.11,5.49v.12h-.13l-3.23.8.12-.12a14,14,0,0,1-1.32,3.37v-.17l1.82,2.77.07.11-.1.1-3.8,3.94-.1.1-.11-.07-2.83-1.71h.17a13.22,13.22,0,0,1-3.32,1.43l.12-.12c-.24,1.07-.46,2.22-.68,3.22v.13h-.12l-5.49.09h-.13v-.12l-.79-3.23.12.12a13.66,13.66,0,0,1-3.36-1.32h.16l-2.77,1.82-.11.06-.09-.09-4.07-3.64-.09-.08.07-.1c.59-1,1.18-2,1.72-2.84v.15a13.73,13.73,0,0,1-1.44-3.31l.11.1-3.23-.69h-.1v-.1c0-1.93,0-3.75-.09-5.48v-.1h.1l3.22-.79-.09.09a13.89,13.89,0,0,1,1.34-3.35v.11l-1.82-2.78v-.06h0l3.84-3.92h0l2.14,1.3c.23.14.4.26.54.33Z" fill="#f5f5f5"/><path d="M680.37,435.6l-320.75-.33a3.13,3.13,0,0,1-3.13-3.13h0V213.06a3.14,3.14,0,0,1,3.13-3.13H677.24a3.13,3.13,0,0,1,3.13,3.13h0Z" fill="#ebebeb"/><polygon points="680.37 435.61 356.27 435.61 356.83 226.78 680.37 226.78 680.37 435.61" fill="#fff"/><path d="M680.62,435.85H356v-.25l.56-209.08h324Zm-324.1-.5h323.6V227h-323Z" fill="#2f2e41"/><path d="M473.89,342.36c0,13.15-9.51,24-29.61,24-10.59,0-21.28-3.2-28.12-8.66L422,346.9c5.45,4.49,13.58,7.38,22,7.38,9.95,0,15.83-4.38,15.83-11.44s-4.6-11.65-20.1-11.65H421.69l3.85-40.74h43.94V302.1H437.33l-1.64,17.42h7.17C465,319.52,473.89,329.14,473.89,342.36Z" fill="#0071f2"/><path d="M481.91,328c0-24.59,13.47-38.49,31.22-38.49s31.33,13.9,31.33,38.49S531,366.45,513.13,366.45,481.91,352.55,481.91,328Zm48.54,0c0-18.07-7.06-26.41-17.32-26.41s-17.22,8.34-17.22,26.41,7.06,26.4,17.22,26.4S530.45,346,530.45,328Z" fill="#0071f2"/><path d="M620.58,348.36H607.32v17H593.85v-17H552.79v-9.6l36.9-48.22h14.86l-34.76,46.08h24.48V321.55h13.05v15.07h13.26Z" fill="#0071f2"/><path d="M416.22,389.52h2.47v7.1a10.66,10.66,0,0,1-6.9,2.32c-5.59,0-9.7-3.93-9.7-9.31s4.11-9.32,9.76-9.32a9.16,9.16,0,0,1,7,2.81l-1.61,1.62a7.26,7.26,0,0,0-5.28-2.11,7,7,0,1,0,0,14,7.56,7.56,0,0,0,4.27-1.17Z" fill="#2f2e41"/><path d="M434.25,390.41v8.32h-2.37v-1.82a5.13,5.13,0,0,1-4.53,2c-3.12,0-5.1-1.67-5.1-4.06,0-2.21,1.43-4,5.54-4h4v-.5c0-2.1-1.22-3.33-3.7-3.33a7.08,7.08,0,0,0-4.4,1.44l-1-1.88a9.33,9.33,0,0,1,5.7-1.77C432.11,384.81,434.25,386.63,434.25,390.41Zm-2.5,4.11v-1.93H427.9c-2.47,0-3.18,1-3.18,2.14,0,1.37,1.15,2.23,3,2.23a4,4,0,0,0,4-2.44Z" fill="#2f2e41"/><path d="M446.63,397.93a4.64,4.64,0,0,1-3,1c-2.79,0-4.37-1.54-4.37-4.32V387h-2.34V385h2.34v-3h2.5v3h3.93V387h-3.95v7.47a2,2,0,0,0,2.15,2.31,3.12,3.12,0,0,0,2-.65Z" fill="#2f2e41"/><path d="M461.58,392.67H450.4c.31,2.42,2.26,4,5,4a5.09,5.09,0,0,0,4-1.66l1.38,1.61a6.91,6.91,0,0,1-5.44,2.24c-4.45,0-7.41-2.94-7.41-7a6.75,6.75,0,0,1,6.5-7h.42c4,0,6.82,2.87,6.82,7.11A4.06,4.06,0,0,1,461.58,392.67Zm-11.18-1.79h8.84a4.45,4.45,0,0,0-8.84,0Z" fill="#2f2e41"/><path d="M485.69,384.94l-5.15,13.79h-2.4l-4-10.46-4,10.46h-2.39l-5.13-13.79H465l4,11,4.17-11h2.1l4.09,11,4.11-11Z" fill="#2f2e41"/><path d="M498.69,390.41v8.32h-2.37v-1.82a5.11,5.11,0,0,1-4.52,2c-3.13,0-5.1-1.67-5.1-4.06,0-2.21,1.43-4,5.54-4h3.95v-.5c0-2.1-1.22-3.33-3.69-3.33a7.07,7.07,0,0,0-4.37,1.49l-1-1.88a9.25,9.25,0,0,1,5.7-1.77C496.57,384.81,498.69,386.63,498.69,390.41Zm-2.5,4.11v-1.93h-3.85c-2.47,0-3.17,1-3.17,2.14,0,1.37,1.14,2.23,3,2.23a4,4,0,0,0,4-2.44Z" fill="#2f2e41"/><path d="M515.27,384.94l-6.69,15.17c-1.22,2.92-2.81,3.83-4.91,3.83a5.14,5.14,0,0,1-3.54-1.28l1.06-1.87a3.51,3.51,0,0,0,2.48,1c1.19,0,1.95-.54,2.62-2.13l.45-1-6.05-13.72h2.6l4.81,11,4.76-11Z" fill="#2f2e41"/><path d="M532.36,397.93a4.64,4.64,0,0,1-3,1c-2.78,0-4.37-1.54-4.37-4.32V387h-2.34V385H525v-3h2.5v3h4V387h-4v7.47a2,2,0,0,0,1.66,2.3,2.1,2.1,0,0,0,.5,0,3.1,3.1,0,0,0,2-.65Z" fill="#2f2e41"/><path d="M534.93,380.68a1.66,1.66,0,0,1,1.66-1.64h0a1.61,1.61,0,0,1,1.69,1.53v.05a1.69,1.69,0,1,1-3.38.06Zm.44,4.26h2.5v13.79h-2.5Z" fill="#2f2e41"/><path d="M565.52,390.8v7.93H563v-7.65c0-2.7-1.3-4-3.57-4-2.49,0-4.13,1.59-4.13,4.58v7.1h-2.5v-7.65c0-2.7-1.3-4-3.57-4-2.49,0-4.13,1.59-4.13,4.58v7.1h-2.5V384.94H545V387a5.62,5.62,0,0,1,4.76-2.19,5.13,5.13,0,0,1,4.79,2.55,6.26,6.26,0,0,1,5.31-2.55C563.24,384.81,565.52,386.74,565.52,390.8Z" fill="#2f2e41"/><path d="M582.61,392.67H571.42a4.68,4.68,0,0,0,5,4,5.09,5.09,0,0,0,4-1.66l1.38,1.61a6.91,6.91,0,0,1-5.44,2.24c-4.45,0-7.41-2.94-7.41-7a6.75,6.75,0,0,1,6.5-7h.42c4,0,6.81,2.87,6.81,7.11A5.35,5.35,0,0,1,582.61,392.67Zm-11.19-1.79h8.85a4.45,4.45,0,0,0-8.85,0Z" fill="#2f2e41"/><path d="M584.85,391.84a7.17,7.17,0,1,1,7.34,7H592a6.85,6.85,0,0,1-7.17-6.53C584.85,392.16,584.85,392,584.85,391.84Zm11.81,0A4.65,4.65,0,1,0,592,396.7a4.52,4.52,0,0,0,4.67-4.38,2.57,2.57,0,0,0,0-.48Z" fill="#2f2e41"/><path d="M615.49,384.94v13.79h-2.37v-2.08a5.56,5.56,0,0,1-4.68,2.24c-3.57,0-5.93-1.95-5.93-6V385H605v7.65c0,2.71,1.35,4.06,3.71,4.06,2.61,0,4.27-1.61,4.27-4.58V385Z" fill="#2f2e41"/><path d="M628,397.93a4.64,4.64,0,0,1-3,1c-2.78,0-4.37-1.54-4.37-4.32V387h-2.34V385h2.34v-3h2.5v3h4V387h-4v7.47a2,2,0,0,0,1.66,2.3,2.1,2.1,0,0,0,.5,0,3,3,0,0,0,2-.65Z" fill="#2f2e41"/><path d="M491.69,269.53v3.28h-12v-15h11.77v3.28h-7.57v2.53h6.67v3.18h-6.67v2.74Z" fill="#0071f2"/><path d="M500.69,268.82h-2.31v4h-4.29v-15H501c4.1,0,6.67,2.13,6.67,5.56a5,5,0,0,1-2.94,4.74l3.24,4.71h-4.55Zm0-7.67h-2.35v4.39h2.35c1.76,0,2.64-.81,2.64-2.18s-.88-2.21-2.64-2.21Z" fill="#0071f2"/><path d="M516.52,268.82H514.2v4H510v-15h6.86c4.1,0,6.67,2.13,6.67,5.56a5,5,0,0,1-2.94,4.74l3.24,4.71h-4.55Zm0-7.67h-2.36v4.39h2.36c1.76,0,2.64-.81,2.64-2.18s-.84-2.21-2.6-2.21Z" fill="#0071f2"/><path d="M525.06,265.36c0-4.5,3.53-7.81,8.34-7.81s8.34,3.31,8.34,7.81-3.54,7.8-8.34,7.8S525.06,269.81,525.06,265.36Zm12.39,0a4.06,4.06,0,1,0-4.05,4.29,4,4,0,0,0,4.06-3.93A2.17,2.17,0,0,0,537.45,265.36Z" fill="#0071f2"/><path d="M550.53,268.82h-2.31v4H544v-15h6.86c4.1,0,6.67,2.13,6.67,5.56a5,5,0,0,1-2.94,4.74l3.24,4.71h-4.55Zm0-7.67h-2.35v4.39h2.35c1.76,0,2.64-.81,2.64-2.18s-.84-2.21-2.6-2.21Z" fill="#0071f2"/><path d="M396.9,218.63a3,3,0,1,1-3-3A3,3,0,0,1,396.9,218.63Z" fill="#2f2e41"/><path d="M378.51,218.63a3,3,0,1,1-3-3A3,3,0,0,1,378.51,218.63Z" fill="#2f2e41"/><path d="M387.34,218.63a3,3,0,1,1-3-3A3,3,0,0,1,387.34,218.63Z" fill="#2f2e41"/><rect x="626.45" y="178.6" width="8" height="12.49" transform="translate(145.05 627.6) rotate(-58.71)" fill="#2f2e41"/><rect x="718.98" y="151.45" width="12.49" height="8" transform="translate(244.63 720.38) rotate(-61.71)" fill="#2f2e41"/><path d="M632.69,176.48l-8.56,14.08-11.5-7a31.48,31.48,0,0,1,8.56-14.08Z" fill="#2f2e41"/><path d="M733.69,157.17l-14.49-7.81,6.38-11.85a31.46,31.46,0,0,1,14.51,7.85Z" fill="#2f2e41"/><g opacity="0.2"><path d="M632.69,176.48l-8.56,14.08-11.5-7a31.48,31.48,0,0,1,8.56-14.08Z"/><path d="M733.69,157.17l-14.49-7.81,6.38-11.85a31.46,31.46,0,0,1,14.51,7.85Z"/></g><rect x="667.7" y="142.45" width="9.47" height="14.78" transform="translate(-13.38 215.25) rotate(-18.01)" fill="#2f2e41"/><path d="M680.84,144l-18.55,6-4.92-15.15a37.3,37.3,0,0,1,18.55-6Z" fill="#0071f2"/><circle cx="693.57" cy="218.45" r="68.91" transform="translate(48.68 554.41) rotate(-45)" fill="#0071f2"/><circle cx="693.35" cy="217.89" r="57.87" fill="#fafafa"/><path d="M652.62,165.3a24.33,24.33,0,0,1-2.44,2.21,75.15,75.15,0,0,0-6.29,6.33,66.69,66.69,0,0,0-16,54.6,73.52,73.52,0,0,0,1.88,8.72,27.54,27.54,0,0,1,.86,3.17,5.15,5.15,0,0,1-.37-.77c-.21-.52-.53-1.28-.85-2.29a60.56,60.56,0,0,1-2.18-8.73,64.79,64.79,0,0,1,16.16-55.18,61.52,61.52,0,0,1,6.55-6.16,23.79,23.79,0,0,1,2-1.48C652.43,165.38,652.6,165.27,652.62,165.3Z" fill="#fff"/><path d="M669.76,155.8c.09.26-2.69,1.55-6.09,3.17s-6.17,3-6.31,2.72,2.45-2,5.9-3.58S669.69,155.56,669.76,155.8Z" fill="#fff"/><g opacity="0.4"><path d="M660.11,265.28S703.27,301,740,263.58c38.36-39.08-2-84.1-2-84.1s32.88,35.05-2.8,78.35c-8.89,10.78-21.1,14.76-30.71,16.85C680,280,660.11,265.28,660.11,265.28Z"/></g><path d="M699.18,183.66a196.68,196.68,0,0,1,7.13,24.43,31.19,31.19,0,0,1,1,9.12,11.85,11.85,0,0,1-3.62,8.15c-2.31,2-5.93,2.67-8.53,1Z" fill="#e0e0e0"/><polygon points="690.74 213.94 699.79 173.76 700.08 215.72 694.51 219.56 690.74 213.94" fill="#0071f2"/><g opacity="0.4"><polygon points="699.79 173.76 696.15 213 700.08 215.72 699.79 173.76"/></g><path d="M701,217.47a6.77,6.77,0,1,1-8.53-4.35,6.76,6.76,0,0,1,8.53,4.35Z" fill="#fff"/><path d="M694.51,226.59a7,7,0,1,1,6.68-9.19h0a7,7,0,0,1-4.51,8.84A7,7,0,0,1,694.51,226.59Zm0-13.55a6.7,6.7,0,0,0-2,.32,6.52,6.52,0,1,0,4,12.4,6.45,6.45,0,0,0,3.79-3.23,6.53,6.53,0,0,0,.4-5h0A6.55,6.55,0,0,0,694.51,213Z" fill="#2f2e41"/><path d="M699.31,218a4.83,4.83,0,1,1,0-.07Z" fill="#2f2e41"/><path d="M657.57,100.51a.85.85,0,0,1-.07.27l-.24.78a22.64,22.64,0,0,1-1.15,3,31.42,31.42,0,0,1-13.79,14.64,29.33,29.33,0,0,1-9.34,3.12,31.76,31.76,0,0,1-22.29-4.82l.36-.32c3.88,7.81,3.87,18.34-.89,27.07a27,27,0,0,1-7.5,8.75,30.11,30.11,0,0,1-29.77,3.53l.23-.39a25.15,25.15,0,0,1,9.57,14.43,24.6,24.6,0,0,1-4.91,21.06,17.29,17.29,0,0,1-2.12,2.24l.12-.15.4-.43c.36-.38.87-1,1.5-1.74a24.79,24.79,0,0,0,4.07-7.62,23.78,23.78,0,0,0,.58-13.27,24.77,24.77,0,0,0-9.54-14.15l-1.8-1.3,2,.91a29.25,29.25,0,0,0,19.56,1.24,29.55,29.55,0,0,0,9.75-4.78,26.52,26.52,0,0,0,7.39-8.58c4.68-8.57,4.7-18.94.91-26.6l-.41-.82.77.51a31.35,31.35,0,0,0,22,4.79A30.29,30.29,0,0,0,649,114a31.81,31.81,0,0,0,7-9.54,27.13,27.13,0,0,0,1.22-2.94l.28-.77C657.52,100.59,657.56,100.5,657.57,100.51Z" fill="#2f2e41"/><path d="M713.81,115.36a8,8,0,0,1-1.37.39,9.19,9.19,0,0,1-1.66.32,16.36,16.36,0,0,1-2.21.21h-1.3c-.45,0-.92,0-1.41-.07a23,23,0,0,1-3.08-.39,28.75,28.75,0,0,1-6.75-2.23,29.49,29.49,0,0,1-5.93-3.93,23.93,23.93,0,0,1-2.2-2.19c-.32-.36-.65-.7-.92-1.06l-.78-1a16.65,16.65,0,0,1-1.2-1.88,11,11,0,0,1-.77-1.49,7.62,7.62,0,0,1-.54-1.32c.11-.06.86,1.86,2.81,4.47l.79,1a12.38,12.38,0,0,0,.93,1,24.42,24.42,0,0,0,2.2,2.12,30.26,30.26,0,0,0,5.84,3.82,29.76,29.76,0,0,0,6.61,2.23,25.8,25.8,0,0,0,3,.43c.48,0,.94.09,1.39.1h1.27C711.82,115.83,713.79,115.23,713.81,115.36Z" fill="#2f2e41"/><path d="M800.91,234.85a2.77,2.77,0,0,1-.27.15l-.82.39c-.36.16-.81.37-1.32.65s-1.12.58-1.77,1a38.63,38.63,0,0,0-15,16,36.5,36.5,0,0,0-3.28,10.06,38.16,38.16,0,0,0,3.78,24.14l.25.46-.52-.1A32.93,32.93,0,0,0,762.17,290a31.73,31.73,0,0,0-8.1,5.3A32.93,32.93,0,0,0,743.45,319v.53l-.39-.36a27.54,27.54,0,0,0-8.28-5.19,33.93,33.93,0,0,0-4.35-1.4,34.29,34.29,0,0,0-4.28-.66,31.53,31.53,0,0,0-14.32,2,29.16,29.16,0,0,0-8.12,4.74c-.85.69-1.4,1.33-1.83,1.71l-.47.44c-.1.1-.16.15-.17.14.76-.83,1.55-1.64,2.38-2.4a28.31,28.31,0,0,1,8.11-4.89,31.83,31.83,0,0,1,14.45-2.09,37.23,37.23,0,0,1,4.34.65,34.94,34.94,0,0,1,4.42,1.4,28,28,0,0,1,8.44,5.25l-.4.17A33.28,33.28,0,0,1,753.73,295a32.3,32.3,0,0,1,8.22-5.4,33.27,33.27,0,0,1,20.11-2.42l-.27.36A38.46,38.46,0,0,1,778,263.07a36.58,36.58,0,0,1,3.37-10.16,39.3,39.3,0,0,1,5.12-7.65,38.13,38.13,0,0,1,10.11-8.3A29.93,29.93,0,0,1,800.91,234.85Z" fill="#2f2e41"/><path d="M791.08,208.36a2.16,2.16,0,0,1-.34-.39,10.55,10.55,0,0,1-.86-1.21,15,15,0,0,1-1.09-13.65,15.49,15.49,0,0,1,7.39-7.79v.46a45.21,45.21,0,0,1-11.84-4.66,28.23,28.23,0,0,1-10.87-10.76A22.06,22.06,0,0,1,771,158.08a17.38,17.38,0,0,1,2.76-8l.8-1.07c.24-.31.49-.53.66-.73a7.67,7.67,0,0,1,.58-.56,3.85,3.85,0,0,1-.5.63c-.16.21-.39.44-.62.75s-.47.69-.75,1.09a17.72,17.72,0,0,0-2.56,7.92,21.92,21.92,0,0,0,2.51,12,28.07,28.07,0,0,0,10.8,10.55,45.76,45.76,0,0,0,11.7,4.63l.66.17-.62.29a15.14,15.14,0,0,0-7.21,7.51,14.7,14.7,0,0,0-1,8.23,15.52,15.52,0,0,0,1.84,5.17C790.69,207.78,791.11,208.36,791.08,208.36Z" fill="#2f2e41"/><path d="M340,262.67c-26.93-8-49-25.1-49-25.1l-86.3,7.35L164,248.75a42.8,42.8,0,0,0-20.59,7.6l-34.17,24.07L127,327.55s32.91-14.17,44.6-4.15c.86,13.5.69,23.12.69,23.12-4.33,37.54,2.69,46.7,5.89,48.9a4.12,4.12,0,0,1,1.75,2.91c0,.13,0,.26,0,.38a68.78,68.78,0,0,1-2.78,29.1L168,456.7C154,484.25,150.9,516.08,150.9,516.08c29.38-14.08,64.88,7.34,64.88,7.34C262.3,548.52,326.57,532,326.57,532c-.61-17.14-3.06-20.2-3.06-20.2-3.06-6.12-3.06-14.69-3.06-14.69,0-12.85-1.83-19.58-1.83-19.58-4.29-17.76-3.06-28.16-3.06-28.16l3.67-47.75s18.36-16.52,12.24-49c0,0-7.34-31.22,6.73-62.44,0,0,6.74-16.53,15.31-22.65Z" fill="#0071f2"/><path d="M292.91,140.7c0,18.83-5.22,35.79-13.58,47.72-7.65,10.93-17.94,17.63-29.27,17.63-9.5,0-18.28-4.72-25.37-12.69v0c-10.6-11.89-17.47-31.05-17.47-52.64,0-36.09,19.19-65.34,42.85-65.34S292.91,104.61,292.91,140.7Z" fill="#f9b499"/><path d="M271.49,83.93s10.67,7.87,17.88,29.95c0,0,13.11,38.1-10,74.16l.11,16.48s.61.61,5.51-.62c0,0,0,3.68,11-.61,0,0,6.73,4.29,12.85-5.51,0,0,8,.62,11-11,0,0,3.06.62,6.73-8.56,0,0,12.25-3.68,4.9-29.39,0,0,4.29-14.69-8.57-29.38,0,0-10.4-8.57-12.85-17.75a19,19,0,0,0-7.35-15.3s-5.51-20.81-24.48-26.32c0,0-14.69-14.08-19-1.84L262.92,76Z" fill="#2f2e41"/><path d="M271.49,83.93s10.67,7.87,17.88,29.95c0,0,13.11,38.1-10,74.16l.11,16.48s.61.61,5.51-.62c0,0,0,3.68,11-.61,0,0,6.73,4.29,12.85-5.51,0,0,8,.62,11-11,0,0,3.06.62,6.73-8.56,0,0,12.25-3.68,4.9-29.39,0,0,4.29-14.69-8.57-29.38,0,0-10.4-8.57-12.85-17.75a19,19,0,0,0-7.35-15.3s-5.51-20.81-24.48-26.32c0,0-14.69-14.08-19-1.84L262.92,76Z" opacity="0.2"/><path d="M279.4,199.93c6-3.73,11.48-9.94,11.32-17.4a19.2,19.2,0,0,0-.26-3.11c2.64,8.61-3.44,17-11.06,20.51Z" opacity="0.2"/><path d="M285,203.9c4-1,6.75-5.25,8.89-8.55.74-1.21,1.41-2.45,2.13-3.69-.24.67-.53,1.33-.79,2-1.88,4.1-5.3,9.76-10.23,10.25Z" opacity="0.2"/><path d="M296,203.29a20.47,20.47,0,0,0,7.86-9.36c.26-.54.45-1.11.71-1.66-.13.59-.26,1.18-.43,1.76-1.25,4-4.12,7.78-8.14,9.26Z" opacity="0.2"/><path d="M326.57,178.2s2.45-19-2.44-34.28c0,0,8.39,11.28,6.95,31.35C331.08,175.27,328.41,177,326.57,178.2Z" opacity="0.2"/><path d="M331.47,148.81a80.63,80.63,0,0,0-6.2-15.09c-.35-.7-.78-1.35-1.14-2a37.62,37.62,0,0,1,7.34,17.13Z" opacity="0.2"/><path d="M307,123.72c6.8,4.39,12.53,11.07,14.69,19-.3-.67-.61-1.42-.89-2.1A48.6,48.6,0,0,0,307,123.72Z" opacity="0.2"/><path d="M291.07,237.57c-5.51,17.14-33.66,25.71-33.66,25.71v40.31a3.15,3.15,0,0,1-3.15,3.15h0a3.16,3.16,0,0,1-3.14-3l-2.28-42.32c-22,3.67-44.07-16.52-44.07-16.52,22-3.68,19.8-51.55,19.8-51.55h.12c7.09,8,15.87,12.69,25.37,12.69,11.33,0,22-8.66,29.69-19.59l-.31,24.18C281.28,227.78,291.07,237.57,291.07,237.57Z" fill="#f9b499"/><path d="M216.46,253.55c5.35-1,19-2.4,23.2,1.16-1.67-1.05-3.73-1-5.63-1.15-5.85-.25-11.68.08-17.57,0Z" fill="#f7a48b"/><path d="M262.92,252.87c1.07-5.17,16.24-4.16,20.3-3.29-1.8.1-3.58.1-5.36.15-3.26.2-13.69-.24-14.94,3.14Z" fill="#f7a48b"/><path d="M245.78,246.75c3.14,4.17,7.12,6.46,10.85,1.49a36.34,36.34,0,0,0,2.61-3.94,17,17,0,0,1-2,4.4c-3.57,5.69-9.21,3.5-11.49-1.95Z" fill="#f7a48b"/><path d="M364.53,286.54S385.34,359.38,386,412a51.58,51.58,0,0,1-4.9,25.1s0,26.93-23.26,14.08l-26.93-.62c-39.18,1.23-76.51-30-76.51-30,17.75-4.28,18.36-24.48,18.36-24.48s36.73,8.57,65.49,4.89l-5.93-28s1.65-6.89-.8-20.35c0,0-5.51-25.71,1.84-49,0,0,9.18-29.38,20.2-36.12C353.51,267.56,360.24,270,364.53,286.54Z" fill="#0071f2"/><path d="M364.53,286.54S385.34,359.38,386,412a51.58,51.58,0,0,1-4.9,25.1s0,26.93-23.26,14.08l-26.93-.62c-39.18,1.23-76.51-30-76.51-30,17.75-4.28,18.36-24.48,18.36-24.48s36.73,8.57,65.49,4.89l-5.93-28s1.65-6.89-.8-20.35c0,0-5.51-25.71,1.84-49,0,0,9.18-29.38,20.2-36.12C353.51,267.56,360.24,270,364.53,286.54Z" opacity="0.2"/><path d="M360.24,401.61c-3.37-1.6-7.23-1.81-10.91-1.77a65.23,65.23,0,0,0-8.35.74c-.92.14-1.84.3-2.78.42.91-.26,1.82-.48,2.73-.72,6.06-1.26,13.8-2,19.31,1.33Z" opacity="0.2"/><path d="M359,393.66c-4.67.47-15.27.93-16.42,6.57a4.43,4.43,0,0,1,.74-2.27c3.19-4.19,10.81-4.58,15.68-4.3Z" opacity="0.2"/><path d="M240.27,409l14.08,11.63s16.52-3.06,18.36-24.48l-11.63-5.51a92.64,92.64,0,0,0-6.73-34.28v-41s-9.8-1.23-9.19,14.69l-.61,10.4-1.83-9.18s-2.45-13.46-3.68-19l.62-11.63s-4.9-3.06-6.74,4.28c0,0-6.73-1.22-6.12,9.18v34.28a37.39,37.39,0,0,0,.61,14.08s1.23,6.73,0,9.18c0,0-7.34-5.51-11.63-12.24,0,0-3.14-6.29-6.6-7.53a2.55,2.55,0,0,0-3.22,1.63c-.94,2.68-1.9,8.71,4.93,15.08,0,0,1.22,1.23,5.51,12.24C216.4,380.8,224.35,413.24,240.27,409Z" fill="#f9b499"/><path d="M210.89,368.56a6.91,6.91,0,0,1,4.89-1.84,6.87,6.87,0,0,1-4.89,1.84Z" fill="#f7a48b"/><path d="M232.92,304.9a11.87,11.87,0,0,0-.84,10.94,101.18,101.18,0,0,0,1.07,12.67,19,19,0,0,1,0,8.56,91.54,91.54,0,0,0-2.06,12.52,63.61,63.61,0,0,1,1.24-12.68,18.49,18.49,0,0,0-.14-8.24,76.7,76.7,0,0,1-.88-12.75c-1.19-3-1-8.16,1.61-11Z" fill="#f7a48b"/><path d="M241.49,354.48c-.9-4.51-.35-9.69,2.45-13.46-1.51,4.39-1.94,8.85-2.45,13.46Z" fill="#f7a48b"/><path d="M245.16,361.83a17.5,17.5,0,0,0,3.68,13.46c-4.3-2.77-5.69-8.88-3.68-13.46Z" fill="#f7a48b"/><path d="M248.23,379.58c-.28,4.54-1.38,8.95-.62,13.47-2.14-4.14-1-9.33.62-13.47Z" fill="#f7a48b"/><path d="M227.41,371.62a29.85,29.85,0,0,1,.62,11,29.64,29.64,0,0,1-.62-11Z" fill="#f7a48b"/><path d="M174.77,274.91s15.3-9.18,31.22-5.51l40.4,9.18s9.79,1.84,15.3,5.51l43,2.83a1.45,1.45,0,0,1,.51,2.77,11.17,11.17,0,0,1-1.31.52l3.92.44a1.45,1.45,0,0,1,1.17,2c-1,2.22-4.35,5.7-15.5,6.11,0,0-7.34,6.12-20.2,1.22a21.93,21.93,0,0,1-16.53,0s-6.73,6.74-23.26,1.23c0,0-16.45,10.42-40.52-2.48a10.83,10.83,0,0,0-9-.56l-3.13,1.2S172.94,288.37,174.77,274.91Z" fill="#f9b499"/><path d="M204.15,293.88c5.52,5.84,17.34,3.56,24.37,2,4.68-.06,9.38-.21,14-.58s9.35-.69,13.61-2.61a19,19,0,0,1-4.89,1.92c-7.21,1.74-15.59,2.17-22.54,2.23-7.17,1.58-19.39,3.59-24.6-2.93Z" fill="#f7a48b"/><path d="M261.69,284.09c10,1.89,20.78,4.11,30.71,6.28l.24.05a4,4,0,0,1-1.42,5.16c-4.27,2.34-11.05.76-14.73-.05-7.06,1.19-14.25.4-21.28-.55l-3-.5c8,.79,16.22,1.6,24.16.18a43,43,0,0,0,9.8,1.15c2.86,0,7-1.22,5.69-4.8l.33.27c-9.93-2.2-20.65-4.71-30.51-7.19Z" fill="#f7a48b"/><path d="M303.93,290.21c-.08,3.63-5.59,4-8.29,3.7a17.47,17.47,0,0,1-3.21-.6c1.09-.12,2.16-.12,3.22-.18,2.62-.26,7.17,0,8.28-2.92Z" fill="#f7a48b"/><g opacity="0.2"><path d="M191.3,410.18c10,16.36,23,35.21,40.4,44.08-17.72-7.3-31.95-27.42-40.4-44.08Z"/></g><g opacity="0.2"><path d="M203.54,416.31c7.16,13.49,19,23.83,31.83,31.82-1.69-.87-3.39-1.75-5-2.71-11.35-6.89-21.63-16.7-26.79-29.11Z"/></g><g opacity="0.2"><path d="M184.57,448.13c18.3,5.58,35.33,14.81,51.37,25.12,15.38,11.1,36.39,15.13,53.91,6.71a47.4,47.4,0,0,1-13.57,4.54c-14.32,2.44-29.17-2.19-40.88-10.41-16-10.38-32.83-19.64-50.83-26Z"/></g><g opacity="0.2"><path d="M257.41,353.26c14.5-1.63,28.78-7.67,39.17-18,1.54-1.39,2.86-3.12,4.29-4.62-9.67,14-26.61,22.25-43.46,22.65Z"/></g><g opacity="0.2"><path d="M274.55,344.69c12.18-10,24-20.6,33.66-33.06-8.61,13.29-20.67,24.16-33.66,33.06Z"/></g><g opacity="0.2"><path d="M188.85,310.41A103.44,103.44,0,0,0,211,328.53c1.15.76,2.38,1.35,3.56,2.08a58.79,58.79,0,0,1-25.71-20.2Z"/></g><g opacity="0.2"><path d="M192.52,321.43A109.44,109.44,0,0,0,212.15,334c1,.54,2,1,3,1.48a49.7,49.7,0,0,1-22.65-14.08Z"/></g><g opacity="0.2"><path d="M181.51,366.72c7.31,7.17,16,13.25,25.74,16.5a19.81,19.81,0,0,0,2.11.66c.71.19,1.43.39,2.14.6a37,37,0,0,1-8.65-2.1,49.77,49.77,0,0,1-21.34-15.66Z"/></g><g opacity="0.2"><path d="M182.73,349.59a67.51,67.51,0,0,0,11.63,14.07c-5.48-2.92-9.49-8.32-11.63-14.07Z"/></g><path d="M335.38,627.69a443,443,0,0,1-92.33-19.43q-2.28-.75-4.51-1.52c-3-4.92-5.62-6.19-5.62-6.19a7.33,7.33,0,0,0-1.78,3.56,349.5,349.5,0,0,1-56.75-26.63c-.32-.16-.63-.35-.95-.55-2.66-1.55-5.3-3.16-7.87-4.77A320.21,320.21,0,0,1,138,552.85c5.24-26.13,12.89-36.77,12.89-36.77,29.38-14.08,64.88,7.34,64.88,7.34C262.3,548.52,326.57,532,326.57,532,334.52,564.81,335.84,601.21,335.38,627.69Z" fill="#2f2e41"/><path d="M271.49,83.93s-8,16.53-38,19c0,0-9.18,2.44-14.69,5.51A27.51,27.51,0,0,1,208,127.76s-6.45,37.32,16.59,65.61c0,0-2,17.27-8.17,17.88,0,0-1.23,6.12-7.35,4.9a8,8,0,0,1-9.18,1.83s9.79-1.22,3.67-7.95c0,0,0-1.84-7.34-3.68,0,0-21.43-4.28-19.59-27.54,0,0-20.81-11.63-5.51-34.89,0,0-6.12-13.47,6.73-25.1,0,0-1.22-20.2,17.75-30a12.94,12.94,0,0,0,6.12-9.18,36.8,36.8,0,0,1,30.61-25.71s24.48-6.12,26.93,4.28c0,0,7.35,0,6.12,6.74,0,0,3.06-1.84,3.06,4.89,0,0,3.68-1.83,2.45,3.68C270.87,73.53,275.16,76,271.49,83.93Z" fill="#2f2e41"/><path d="M177.83,118.82c1.65-5.38,6.79-8.83,11.34-11.6A40.18,40.18,0,0,0,199.87,95c-.31.61-.62,1.23-1,1.84a33.54,33.54,0,0,1-9.4,10.94c-4.6,2.76-9.58,5.92-11.69,11.09Z" opacity="0.2"/><path d="M171.1,143.92c1.05-3,3.22-5.46,5.42-7.67a43.42,43.42,0,0,1,7.43-5.8c-4.61,4-9.82,8.07-12.85,13.47Z" opacity="0.2"/><path d="M176.61,178.81c1.89-6.44,6.06-12.09,11-16.53-4.34,5-8.35,10.42-11,16.53Z" opacity="0.2"/><path d="M194.36,139.63A41.54,41.54,0,0,1,187,152.3a33,33,0,0,1-3.45,3.45,21.44,21.44,0,0,0-5.13,13.76,18.76,18.76,0,0,0,.75,5,17.42,17.42,0,0,1-1.05-5,20.81,20.81,0,0,1,5-14.18,32.94,32.94,0,0,0,3.48-3.41,49.72,49.72,0,0,0,7.76-12.3Z" opacity="0.2"/><path d="M209.05,216.15a20.59,20.59,0,0,0,3.67-6.74,8,8,0,0,1-3.67,6.74Z" opacity="0.2"/><path d="M216.4,211.25c.53-7.3-.39-15.64-6.13-20.81a14.14,14.14,0,0,1,2.16,1.86c4.5,5.06,5.21,12.53,4,18.95Z" opacity="0.2"/><path d="M208.44,196c-6.74-5.58-10.05-15.08-6.29-23.31a25.13,25.13,0,0,1,3.84-6.07,28.63,28.63,0,0,0-3.79,7.19c-2.87,7.85.46,16.56,6.24,22.19Z" opacity="0.2"/><path d="M242.41,70.16a12.74,12.74,0,0,1,2.46-4.85,19.54,19.54,0,0,1,11.67-6.72c.9-.14,1.8-.26,2.7-.37-.87.24-1.76.43-2.63.67-6,1.64-11.84,5.32-14.2,11.27Z" opacity="0.2"/><path d="M252.82,79.34A18.19,18.19,0,0,1,263,65.84a24.22,24.22,0,0,1,2.33-.88,22.8,22.8,0,0,0-12.54,14.38Z" opacity="0.2"/><path d="M260.16,81.79c-.23-4.55,2.14-9.42,6.42-11.3a13.35,13.35,0,0,1,1.84-.64c-.56.33-1.17.54-1.7.9-3.92,2.25-6,6.68-6.56,11Z" opacity="0.2"/><path d="M265.67,87.3c-1.14-4.4-1.09-10.48,3.28-13.09a6.78,6.78,0,0,1,1.92-.68c-5.5,2-5.63,8.82-5.2,13.77Z" opacity="0.2"/><ellipse cx="289.54" cy="142.69" rx="8.88" ry="13.47" fill="#f9b499"/><path d="M317.39,178.2s-.61-13.47-9.79-20.2c0,0-12.85-9.49-14.69-17.3a78.48,78.48,0,0,0-1.31-17.11,205.75,205.75,0,0,0,23.34,30.12S324.13,162.89,317.39,178.2Z" fill="#2f2e41"/><path d="M317.39,178.2s-.61-13.47-9.79-20.2c0,0-12.85-9.49-14.69-17.3a78.48,78.48,0,0,0-1.31-17.11,205.75,205.75,0,0,0,23.34,30.12S324.13,162.89,317.39,178.2Z" opacity="0.3"/><ellipse cx="209.36" cy="140.86" rx="8.88" ry="13.47" fill="#f9b499"/><path d="M279.33,188.42c-6.53,24.6-56.51,28.73-56.51,28.73a171.31,171.31,0,0,0,1.75-23.78l.11,0v0c7.09,8,15.87,12.69,25.37,12.69C261.39,206.05,271.68,199.35,279.33,188.42Z" fill="#f7a48b"/><path d="M174.77,274.91a38.45,38.45,0,0,0,6.12,24.48s-72.23,46.52-122.42,44.69c0,0-13.46,6.12-14.08-13.47,0,0-10.4-6.12.62-20.2,0,0,20.81-34.89,73.45-31.22C118.46,279.19,139.88,280.42,174.77,274.91Z" fill="#0071f2"/><path d="M174.77,274.91a38.45,38.45,0,0,0,6.12,24.48s-72.23,46.52-122.42,44.69c0,0-13.46,6.12-14.08-13.47,0,0-10.4-6.12.62-20.2,0,0,20.81-34.89,73.45-31.22C118.46,279.19,139.88,280.42,174.77,274.91Z" opacity="0.2"/><path d="M693.55,276.23A58.25,58.25,0,1,1,751.8,218,58.32,58.32,0,0,1,693.55,276.23Zm0-116A57.75,57.75,0,1,0,751.3,218,57.81,57.81,0,0,0,693.55,160.23Z" fill="#2f2e41"/><rect x="736.73" y="235.17" width="0.5" height="15.46" transform="translate(192.41 795.7) rotate(-63.67)" fill="#2f2e41"/><polygon points="711.99 273.57 709.47 258.32 709.96 258.24 712.49 273.49 711.99 273.57" fill="#2f2e41"/><polygon points="665.66 269.32 665.26 269.03 674.29 256.49 674.7 256.78 665.66 269.32" fill="#2f2e41"/><polygon points="639.63 239.32 639.49 238.84 654.32 234.48 654.47 234.96 639.63 239.32" fill="#2f2e41"/><rect x="648.73" y="186.17" width="0.5" height="15.46" transform="translate(173.71 676.49) rotate(-62.07)" fill="#2f2e41"/><rect x="677.73" y="162.17" width="0.5" height="15.46" transform="translate(-20.92 177.44) rotate(-14.69)" fill="#2f2e41"/><polygon points="715.4 180.76 714.97 180.52 722.55 167.05 722.99 167.29 715.4 180.76" fill="#2f2e41"/><rect x="733.25" y="199.65" width="15.46" height="0.5" transform="translate(-18.76 91.24) rotate(-6.96)" fill="#2f2e41"/></svg>